HIERARCHY
ROOT hip
{
	OFFSET 0.000000 0.000000 0.000000
	CHANNELS 6 Xposition Yposition Zposition Xrotation Zrotation Yrotation 
	JOINT abdomen
	{
		OFFSET 0.000000 3.422050 0.000000
		CHANNELS 3 Xrotation Zrotation Yrotation 
		JOINT chest
		{
			OFFSET 0.000000 8.486693 -0.6844110
			CHANNELS 3 Xrotation Zrotation Yrotation 
			JOINT neck
			{
				OFFSET 0.000000 10.26616 -0.2737640
				CHANNELS 3 Xrotation Zrotation Yrotation 
				JOINT head
				{
					OFFSET 0.000000 3.148285 0.000000
					CHANNELS 3 Xrotation Zrotation Yrotation 
					End Site
					{
						OFFSET 0.000000 3.148289 0.000000
					}
				}
			}
			JOINT lCollar
			{
				OFFSET 3.422053 6.707223 -0.8212930
				CHANNELS 3 Yrotation Zrotation Xrotation 
				JOINT lShldr
				{
					OFFSET 3.285171 0.000000 0.000000
					CHANNELS 3 Zrotation Yrotation Xrotation 
					JOINT lForeArm
					{
						OFFSET 10.12928 0.000000 0.000000
						CHANNELS 3 Yrotation Zrotation Xrotation 
						JOINT lHand
						{
							OFFSET 8.486692 0.000000 0.000000
							CHANNELS 3 Zrotation Yrotation Xrotation 
							End Site
							{
								OFFSET 4.106464 0.000000 0.000000
							}
						}
					}
				}
			}
			JOINT rCollar
			{
				OFFSET -3.558935 6.707223 -0.8212930
				CHANNELS 3 Yrotation Zrotation Xrotation 
				JOINT rShldr
				{
					OFFSET -3.148289 0.000000 0.000000
					CHANNELS 3 Zrotation Yrotation Xrotation 
					JOINT rForeArm
					{
						OFFSET -10.26616 0.000000 0.000000
						CHANNELS 3 Yrotation Zrotation Xrotation 
						JOINT rHand
						{
							OFFSET -8.349810 0.000000 0.000000
							CHANNELS 3 Zrotation Yrotation Xrotation 
							End Site
							{
								OFFSET -4.106464 0.000000 0.000000
							}
						}
					}
				}
			}
		}
	}
	JOINT lThigh
	{
		OFFSET 5.338403 -1.642589 1.368821
		CHANNELS 3 Xrotation Zrotation Yrotation 
		JOINT lShin
		{
			OFFSET -2.053232 -20.12167 0.000000
			CHANNELS 3 Xrotation Zrotation Yrotation 
			JOINT lFoot
			{
				OFFSET 0.000000 -19.30038 -1.231939
				CHANNELS 3 Xrotation Yrotation Zrotation 
				End Site
				{
					OFFSET 0.000000 -2.463878 4.653993
				}
			}
		}
	}
	JOINT rThigh
	{
		OFFSET -5.338403 -1.642589 1.368821
		CHANNELS 3 Xrotation Zrotation Yrotation 
		JOINT rShin
		{
			OFFSET 2.053232 -20.12167 0.000000
			CHANNELS 3 Xrotation Zrotation Yrotation 
			JOINT rFoot
			{
				OFFSET 0.000000 -19.30038 -1.231939
				CHANNELS 3 Xrotation Yrotation Zrotation 
				End Site
				{
					OFFSET 0.000000 -2.463878 4.653993
				}
			}
		}
	}
}
MOTION
Frames:	21
Frame Time:	0.03333333
10.80000 37.00000 0.3000000 1.000000 0.000000 1.333333 1.000000 0.000000 -1.333333 1.000000 0.000000 0.000000 1.000000 0.000000 0.000000 1.000000 0.000000 0.000000 0.000000 0.000000 1.000000 -46.46667 -2.488889 -21.93333 -91.02222 14.00000 0.000000 0.000000 0.000000 1.000000 0.000000 0.000000 1.000000 46.46667 2.488889 -21.93333 91.02222 -14.00000 0.000000 0.000000 0.000000 1.000000 -25.00000 20.00000 13.00000 47.00000 0.000000 0.000000 -20.00000 0.000000 0.000000 -27.50000 -20.00000 -13.00000 52.50000 0.000000 0.000000 -20.00000 0.000000 0.000000 
10.60000 37.00000 0.6000000 1.000000 0.000000 2.666667 1.000000 0.000000 -2.666667 1.000000 0.000000 0.000000 1.000000 0.000000 0.000000 1.000000 0.000000 0.000000 0.000000 0.000000 1.000000 -47.93333 -4.977778 -20.86667 -92.04444 14.00000 0.000000 0.000000 0.000000 1.000000 0.000000 0.000000 1.000000 47.93333 4.977778 -20.86667 92.04444 -14.00000 0.000000 0.000000 0.000000 1.000000 -25.00000 20.00000 13.00000 47.00000 0.000000 0.000000 -20.00000 0.000000 0.000000 -30.00000 -20.00000 -13.00000 58.00000 0.000000 0.000000 -20.00000 0.000000 0.000000 
10.40000 37.00000 0.9000000 1.000000 0.000000 4.000000 1.000000 0.000000 -4.000000 1.000000 0.000000 0.000000 1.000000 0.000000 0.000000 1.000000 0.000000 0.000000 0.000000 0.000000 1.000000 -49.40000 -7.466667 -19.80000 -93.06667 14.00000 0.000000 0.000000 0.000000 1.000000 0.000000 0.000000 1.000000 49.40000 7.466667 -19.80000 93.06667 -14.00000 0.000000 0.000000 0.000000 1.000000 -25.00000 20.00000 13.00000 47.00000 0.000000 0.000000 -20.00000 0.000000 0.000000 -32.50000 -20.00000 -13.00000 63.50000 0.000000 0.000000 -20.00000 0.000000 0.000000 
10.20000 37.00000 1.200000 1.000000 0.000000 5.333333 1.000000 0.000000 -5.333333 1.000000 0.000000 0.000000 1.000000 0.000000 0.000000 1.000000 0.000000 0.000000 0.000000 0.000000 1.000000 -50.86667 -9.955556 -18.73333 -94.08889 14.00000 0.000000 0.000000 0.000000 1.000000 0.000000 0.000000 1.000000 50.86667 9.955556 -18.73333 94.08889 -14.00000 0.000000 0.000000 0.000000 1.000000 -25.00000 20.00000 13.00000 47.00000 0.000000 0.000000 -20.00000 0.000000 0.000000 -35.00000 -20.00000 -13.00000 69.00000 0.000000 0.000000 -20.00000 0.000000 0.000000 
10.00000 37.00000 1.500000 1.000000 0.000000 6.666667 1.000000 0.000000 -6.666667 1.000000 0.000000 0.000000 1.000000 0.000000 0.000000 1.000000 0.000000 0.000000 0.000000 0.000000 1.000000 -52.33334 -12.44444 -17.66667 -95.11111 14.00000 0.000000 0.000000 0.000000 1.000000 0.000000 0.000000 1.000000 52.33334 12.44444 -17.66667 95.11111 -14.00000 0.000000 0.000000 0.000000 1.000000 -25.00000 20.00000 13.00000 47.00000 0.000000 0.000000 -20.00000 0.000000 0.000000 -37.50000 -20.00000 -13.00000 74.50000 0.000000 0.000000 -20.00000 0.000000 0.000000 
9.800000 37.00000 1.800000 1.000000 0.000000 8.000000 1.000000 0.000000 -8.000000 1.000000 0.000000 0.000000 1.000000 0.000000 0.000000 1.000000 0.000000 0.000000 0.000000 0.000000 1.000000 -53.80000 -14.93333 -16.60000 -96.13333 14.00000 0.000000 0.000000 0.000000 1.000000 0.000000 0.000000 1.000000 53.80000 14.93333 -16.60000 96.13333 -14.00000 0.000000 0.000000 0.000000 1.000000 -25.00000 20.00000 13.00000 47.00000 0.000000 0.000000 -20.00000 0.000000 0.000000 -40.00000 -20.00000 -13.00000 80.00000 0.000000 0.000000 -20.00000 0.000000 0.000000 
9.600000 37.00000 2.100000 1.000000 0.000000 9.333333 1.000000 0.000000 -9.333333 1.000000 0.000000 0.000000 1.000000 0.000000 0.000000 1.000000 0.000000 0.000000 0.000000 0.000000 1.000000 -55.26667 -17.42222 -15.53333 -97.15556 14.00000 0.000000 0.000000 0.000000 1.000000 0.000000 0.000000 1.000000 55.26667 17.42222 -15.53333 97.15556 -14.00000 0.000000 0.000000 0.000000 1.000000 -25.00000 20.00000 13.00000 47.00000 0.000000 0.000000 -20.00000 0.000000 0.000000 -42.50000 -20.00000 -13.00000 85.50000 0.000000 0.000000 -20.00000 0.000000 0.000000 
9.400000 37.00000 2.400000 1.000000 0.000000 10.66667 1.000000 0.000000 -10.66667 1.000000 0.000000 0.000000 1.000000 0.000000 0.000000 1.000000 0.000000 0.000000 0.000000 0.000000 1.000000 -56.73333 -19.91111 -14.46667 -98.17778 14.00000 0.000000 0.000000 0.000000 1.000000 0.000000 0.000000 1.000000 56.73333 19.91111 -14.46667 98.17778 -14.00000 0.000000 0.000000 0.000000 1.000000 -25.00000 20.00000 13.00000 47.00000 0.000000 0.000000 -20.00000 0.000000 0.000000 -45.00000 -20.00000 -13.00000 91.00000 0.000000 0.000000 -20.00000 0.000000 0.000000 
9.200000 37.00000 2.700000 1.000000 0.000000 12.00000 1.000000 0.000000 -12.00000 1.000000 0.000000 0.000000 1.000000 0.000000 0.000000 1.000000 0.000000 0.000000 0.000000 0.000000 1.000000 -58.20000 -22.40000 -13.40000 -99.20000 14.00000 0.000000 0.000000 0.000000 1.000000 0.000000 0.000000 1.000000 58.20000 22.40000 -13.40000 99.20000 -14.00000 0.000000 0.000000 0.000000 1.000000 -25.00000 20.00000 13.00000 47.00000 0.000000 0.000000 -20.00000 0.000000 0.000000 -47.50000 -20.00000 -13.00000 96.50000 0.000000 0.000000 -20.00000 0.000000 0.000000 
9.000000 37.00000 3.000000 1.000000 0.000000 13.33333 1.000000 0.000000 -13.33333 1.000000 0.000000 0.000000 1.000000 0.000000 0.000000 1.000000 0.000000 0.000000 0.000000 0.000000 1.000000 -59.66667 -24.88889 -12.33333 -100.2222 14.00000 0.000000 0.000000 0.000000 1.000000 0.000000 0.000000 1.000000 59.66667 24.88889 -12.33333 100.2222 -14.00000 0.000000 0.000000 0.000000 1.000000 -25.00000 20.00000 13.00000 47.00000 0.000000 0.000000 -20.00000 0.000000 0.000000 -50.00000 -20.00000 -13.00000 102.0000 0.000000 0.000000 -20.00000 0.000000 0.000000 
9.000000 37.00000 3.093750 1.000000 0.000000 13.85417 1.000000 0.000000 -13.41667 1.000000 0.000000 0.000000 1.000000 0.000000 0.000000 1.000000 0.000000 0.000000 0.000000 0.000000 1.000000 -61.50000 -28.00000 -11.00000 -101.5000 14.00000 0.000000 0.000000 0.000000 1.000000 0.000000 0.000000 1.000000 61.50000 28.00000 -11.00000 101.5000 -14.00000 0.000000 0.000000 0.000000 1.000000 -25.00000 20.00000 13.00000 47.00000 0.000000 0.000000 -20.00000 0.000000 0.000000 -47.50000 -20.00000 -13.00000 96.50000 0.000000 0.000000 -20.00000 0.000000 0.000000 
9.000000 37.00000 3.187500 1.000000 0.000000 14.37500 1.000000 0.000000 -13.50000 1.000000 0.000000 0.000000 1.000000 0.000000 0.000000 1.000000 0.000000 0.000000 0.000000 0.000000 1.000000 -63.33334 -31.11111 -9.666666 -102.7778 14.00000 0.000000 0.000000 0.000000 1.000000 0.000000 0.000000 1.000000 63.33334 31.11111 -9.666666 102.7778 -14.00000 0.000000 0.000000 0.000000 1.000000 -25.00000 20.00000 13.00000 47.00000 0.000000 0.000000 -20.00000 0.000000 0.000000 -45.00000 -20.00000 -13.00000 91.00000 0.000000 0.000000 -20.00000 0.000000 0.000000 
9.000000 37.00000 3.281250 1.000000 0.000000 14.89583 1.000000 0.000000 -13.58333 1.000000 0.000000 0.000000 1.000000 0.000000 0.000000 1.000000 0.000000 0.000000 0.000000 0.000000 1.000000 -65.16666 -34.22222 -8.333333 -104.0556 14.00000 0.000000 0.000000 0.000000 1.000000 0.000000 0.000000 1.000000 65.16666 34.22222 -8.333333 104.0556 -14.00000 0.000000 0.000000 0.000000 1.000000 -25.00000 20.00000 13.00000 47.00000 0.000000 0.000000 -20.00000 0.000000 0.000000 -42.50000 -20.00000 -13.00000 85.50000 0.000000 0.000000 -20.00000 0.000000 0.000000 
9.000000 37.00000 3.375000 1.000000 0.000000 15.41667 1.000000 0.000000 -13.66667 1.000000 0.000000 0.000000 1.000000 0.000000 0.000000 1.000000 0.000000 0.000000 0.000000 0.000000 1.000000 -67.00000 -37.33333 -7.000000 -105.3333 14.00000 0.000000 0.000000 0.000000 1.000000 0.000000 0.000000 1.000000 67.00000 37.33333 -7.000000 105.3333 -14.00000 0.000000 0.000000 0.000000 1.000000 -25.00000 20.00000 13.00000 47.00000 0.000000 0.000000 -20.00000 0.000000 0.000000 -40.00000 -20.00000 -13.00000 80.00000 0.000000 0.000000 -20.00000 0.000000 0.000000 
9.000000 37.00000 3.468750 1.000000 0.000000 15.93750 1.000000 0.000000 -13.75000 1.000000 0.000000 0.000000 1.000000 0.000000 0.000000 1.000000 0.000000 0.000000 0.000000 0.000000 1.000000 -68.83334 -40.44444 -5.666667 -106.6111 14.00000 0.000000 0.000000 0.000000 1.000000 0.000000 0.000000 1.000000 68.83334 40.44444 -5.666667 106.6111 -14.00000 0.000000 0.000000 0.000000 1.000000 -25.00000 20.00000 13.00000 47.00000 0.000000 0.000000 -20.00000 0.000000 0.000000 -37.50000 -20.00000 -13.00000 74.50000 0.000000 0.000000 -20.00000 0.000000 0.000000 
9.000000 37.00000 3.562500 1.000000 0.000000 16.45833 1.000000 0.000000 -13.83333 1.000000 0.000000 0.000000 1.000000 0.000000 0.000000 1.000000 0.000000 0.000000 0.000000 0.000000 1.000000 -70.66666 -43.55556 -4.333333 -107.8889 14.00000 0.000000 0.000000 0.000000 1.000000 0.000000 0.000000 1.000000 70.66666 43.55556 -4.333333 107.8889 -14.00000 0.000000 0.000000 0.000000 1.000000 -25.00000 20.00000 13.00000 47.00000 0.000000 0.000000 -20.00000 0.000000 0.000000 -35.00000 -20.00000 -13.00000 69.00000 0.000000 0.000000 -20.00000 0.000000 0.000000 
9.000000 37.00000 3.656250 1.000000 0.000000 16.97917 1.000000 0.000000 -13.91667 1.000000 0.000000 0.000000 1.000000 0.000000 0.000000 1.000000 0.000000 0.000000 0.000000 0.000000 1.000000 -72.50000 -46.66667 -3.000000 -109.1667 14.00000 0.000000 0.000000 0.000000 1.000000 0.000000 0.000000 1.000000 72.50000 46.66667 -3.000000 109.1667 -14.00000 0.000000 0.000000 0.000000 1.000000 -25.00000 20.00000 13.00000 47.00000 0.000000 0.000000 -20.00000 0.000000 0.000000 -32.50000 -20.00000 -13.00000 63.50000 0.000000 0.000000 -20.00000 0.000000 0.000000 
9.000000 37.00000 3.750000 1.000000 0.000000 17.50000 1.000000 0.000000 -14.00000 1.000000 0.000000 0.000000 1.000000 0.000000 0.000000 1.000000 0.000000 0.000000 0.000000 0.000000 1.000000 -74.33334 -49.77778 -1.666667 -110.4444 14.00000 0.000000 0.000000 0.000000 1.000000 0.000000 0.000000 1.000000 74.33334 49.77778 -1.666667 110.4444 -14.00000 0.000000 0.000000 0.000000 1.000000 -25.00000 20.00000 13.00000 47.00000 0.000000 0.000000 -20.00000 0.000000 0.000000 -30.00000 -20.00000 -13.00000 58.00000 0.000000 0.000000 -20.00000 0.000000 0.000000 
9.000000 37.00000 3.843750 1.000000 0.000000 18.02083 1.000000 0.000000 -14.08333 1.000000 0.000000 0.000000 1.000000 0.000000 0.000000 1.000000 0.000000 0.000000 0.000000 0.000000 1.000000 -76.16666 -52.88889 -0.3333333 -111.7222 14.00000 0.000000 0.000000 0.000000 1.000000 0.000000 0.000000 1.000000 76.16666 52.88889 -0.3333333 111.7222 -14.00000 0.000000 0.000000 0.000000 1.000000 -25.00000 20.00000 13.00000 47.00000 0.000000 0.000000 -20.00000 0.000000 0.000000 -27.50000 -20.00000 -13.00000 52.50000 0.000000 0.000000 -20.00000 0.000000 0.000000 
9.000000 37.00000 3.937500 1.000000 0.000000 18.54167 1.000000 0.000000 -14.16667 1.000000 0.000000 0.000000 1.000000 0.000000 0.000000 1.000000 0.000000 0.000000 0.000000 0.000000 1.000000 -78.00000 -56.00000 1.000000 -113.0000 14.00000 0.000000 0.000000 0.000000 1.000000 0.000000 0.000000 1.000000 78.00000 56.00000 1.000000 113.0000 -14.00000 0.000000 0.000000 0.000000 1.000000 -25.00000 20.00000 13.00000 47.00000 0.000000 0.000000 -20.00000 0.000000 0.000000 -25.00000 -20.00000 -13.00000 47.00000 0.000000 0.000000 -20.00000 0.000000 0.000000 
9.000000 37.00000 4.031250 1.000000 0.000000 19.06250 1.000000 0.000000 -14.25000 1.000000 0.000000 0.000000 1.000000 0.000000 0.000000 1.000000 0.000000 0.000000 0.000000 0.000000 1.000000 -69.10000 -48.10000 1.000000 -112.3429 14.00000 0.000000 0.000000 0.000000 1.000000 0.000000 0.000000 1.000000 70.20000 49.66667 0.9000000 113.0000 -12.60000 0.1000000 0.000000 0.000000 1.000000 -25.00000 20.00000 13.00000 47.00000 0.000000 0.000000 -20.00000 0.000000 0.000000 -25.00000 -20.00000 -13.00000 47.00000 0.000000 0.000000 -20.00000 0.000000 0.000000 
